<?xml version="1.0" standalone="no"?>
<!DOCTYPE svg PUBLIC "-//W3C//DTD SVG 20010904//EN"
 "http://www.w3.org/TR/2001/REC-SVG-20010904/DTD/svg10.dtd">
<svg version="1.0" xmlns="http://www.w3.org/2000/svg"
 width="327.000000pt" height="247.000000pt" viewBox="0 0 327.000000 247.000000"
 preserveAspectRatio="xMidYMid meet">

<g transform="translate(0.000000,247.000000) scale(0.100000,-0.100000)"
fill="#000000" stroke="none">
<path d="M1786 1830 c-35 -20 -708 -438 -788 -490 -88 -59 -92 -148 -10 -233
55 -58 276 -231 552 -433 390 -287 379 -280 443 -248 23 12 252 172 285 200 9
7 -34 64 -45 60 -13 -5 -199 -134 -242 -167 -32 -25 -47 -24 -67 6 -14 22 -15
32 -5 65 10 34 28 51 129 124 109 80 497 355 640 456 53 37 63 48 60 69 -3 22
-70 71 -443 318 -242 161 -447 293 -455 293 -8 0 -32 -9 -54 -20z"/>
<path d="M2570 934 c-113 -79 -206 -148 -207 -152 -2 -4 7 -19 20 -34 l22 -27
184 130 c102 71 193 137 203 146 23 20 21 77 -2 80 -8 1 -107 -63 -220 -143z"/>
<path d="M1240 599 c0 -264 2 -272 79 -341 122 -109 396 -179 641 -164 225 14
379 68 492 174 l48 45 0 198 c0 110 -3 199 -6 199 -4 0 -22 -9 -40 -21 -29
-17 -32 -23 -24 -44 5 -14 12 -54 16 -90 l7 -64 -34 9 c-19 6 -35 10 -36 10
-2 0 -15 -24 -30 -52 l-26 -53 -14 75 c-8 41 -18 78 -22 82 -4 5 -52 -24 -106
-64 -177 -127 -226 -158 -250 -158 -26 0 -169 98 -482 331 l-213 159 0 -231z"/>
</g>
</svg>
